  0
SECTION
  2
HEADER
  9
$EXTMIN
 10
0.000000
 20
0.000000
  9
$EXTMAX
 10
10000.000000
 20
10000.000000
  0
ENDSEC
  0
SECTION
  2
TABLES
  0
TABLE
  2
LTYPE
 70
1
  0
LTYPE
  2
Solid
 70
64
3
Solid
 72
65
  73
0
 40
0.000000
  0
ENDTAB
  0
TABLE
  2
LAYER
 70
2
  0
LAYER
  2
0
 70
 0
 62
7
  6
Solid
  0
LAYER
  2
Drawing
 70
 0
 62
7
  6
Solid
  0
ENDTAB
  0
TABLE
  2
STYLE
 70
1
  0
STYLE
  2
Standard
 70
64
 40
0.0
 41
1.000000
 50
0.0
 71
 0
 42
5.0
  3
arial
  4

  0
ENDTAB
  0
ENDSEC
  0
SECTION
  2
BLOCKS
  0
ENDSEC
  0
SECTION
  2
ENTITIES
  0
CIRCLE
  8
Drawing
  6
Solid
 10
3721.897834
 20
7280.535280
 30
0.0
 40
1160.941301
  0
ARC
  8
Drawing
  6
Solid
 10
7275.690576
 20
5286.525132
 30
0.0
 40
2064.534847
 50
77.953523
 51
194.361133
  0
POLYLINE
  8
Drawing
  6
Solid
 66
 1
 70
0
 40
0.000000
 41
0.000000
  0
VERTEX
  8
Drawing
 10
4223.114577
 20
4448.661670
 30
0.0
  0
VERTEX
  8
Drawing
 10
4607.480102
 20
4149.602369
 30
0.0
  0
VERTEX
  8
Drawing
 10
4977.615122
 20
3860.229287
 30
0.0
  0
VERTEX
  8
Drawing
 10
5319.289133
 20
3590.228644
 30
0.0
  0
VERTEX
  8
Drawing
 10
5618.271631
 20
3349.286658
 30
0.0
  0
VERTEX
  8
Drawing
 10
5860.332111
 20
3147.089551
 30
0.0
  0
VERTEX
  8
Drawing
 10
6031.240069
 20
2993.323539
 30
0.0
  0
VERTEX
  8
Drawing
 10
6116.765000
 20
2897.674844
 30
0.0
  0
VERTEX
  8
Drawing
 10
6102.676399
 20
2869.829684
 30
0.0
  0
VERTEX
  8
Drawing
 10
5979.681801
 20
2914.373476
 30
0.0
  0
VERTEX
  8
Drawing
 10
5763.025447
 20
3013.469168
 30
0.0
  0
VERTEX
  8
Drawing
 10
5474.147452
 20
3143.322734
 30
0.0
  0
VERTEX
  8
Drawing
 10
5134.487936
 20
3280.140153
 30
0.0
  0
VERTEX
  8
Drawing
 10
4765.487013
 20
3400.127401
 30
0.0
  0
VERTEX
  8
Drawing
 10
4388.584803
 20
3479.490454
 30
0.0
  0
VERTEX
  8
Drawing
 10
4025.221420
 20
3494.435289
 30
0.0
  0
VERTEX
  8
Drawing
 10
3696.836983
 20
3421.167883
 30
0.0
  0
VERTEX
  8
Drawing
 10
3558.219150
 20
3350.093749
 30
0.0
  0
VERTEX
  8
Drawing
 10
3429.686715
 20
3261.119096
 30
0.0
  0
VERTEX
  8
Drawing
 10
3308.546452
 20
3161.712247
 30
0.0
  0
VERTEX
  8
Drawing
 10
3192.105131
 20
3059.341526
 30
0.0
  0
VERTEX
  8
Drawing
 10
3077.669526
 20
2961.475255
 30
0.0
  0
VERTEX
  8
Drawing
 10
2962.546408
 20
2875.581758
 30
0.0
  0
VERTEX
  8
Drawing
 10
2844.042548
 20
2809.129357
 30
0.0
  0
VERTEX
  8
Drawing
 10
2719.464720
 20
2769.586375
 30
0.0
  0
VERTEX
  8
Drawing
 10
2506.869667
 20
2773.186046
 30
0.0
  0
VERTEX
  8
Drawing
 10
2284.629087
 20
2850.105238
 30
0.0
  0
VERTEX
  8
Drawing
 10
2065.113211
 20
2987.335748
 30
0.0
  0
VERTEX
  8
Drawing
 10
1860.692272
 20
3171.869377
 30
0.0
  0
VERTEX
  8
Drawing
 10
1683.736503
 20
3390.697922
 30
0.0
  0
VERTEX
  8
Drawing
 10
1546.616134
 20
3630.813183
 30
0.0
  0
VERTEX
  8
Drawing
 10
1461.701399
 20
3879.206958
 30
0.0
  0
VERTEX
  8
Drawing
 10
1441.362530
 20
4122.871046
 30
0.0
  0
VERTEX
  8
Drawing
 10
1515.027316
 20
4398.340205
 30
0.0
  0
VERTEX
  8
Drawing
 10
1682.803056
 20
4641.537076
 30
0.0
  0
VERTEX
  8
Drawing
 10
1923.806943
 20
4846.698142
 30
0.0
  0
VERTEX
  8
Drawing
 10
2217.156172
 20
5008.059887
 30
0.0
  0
VERTEX
  8
Drawing
 10
2541.967935
 20
5119.858793
 30
0.0
  0
VERTEX
  8
Drawing
 10
2877.359426
 20
5176.331344
 30
0.0
  0
VERTEX
  8
Drawing
 10
3202.447838
 20
5171.714021
 30
0.0
  0
VERTEX
  8
Drawing
 10
3496.350365
 20
5100.243309
 30
0.0
  0
VERTEX
  8
Drawing
 10
3608.152446
 20
5048.022383
 30
0.0
  0
VERTEX
  8
Drawing
 10
3711.571905
 20
4984.110745
 30
0.0
  0
VERTEX
  8
Drawing
 10
3807.806259
 20
4910.178498
 30
0.0
  0
VERTEX
  8
Drawing
 10
3898.053027
 20
4827.895742
 30
0.0
  0
VERTEX
  8
Drawing
 10
3983.509725
 20
4738.932580
 30
0.0
  0
VERTEX
  8
Drawing
 10
4065.373871
 20
4644.959113
 30
0.0
  0
VERTEX
  8
Drawing
 10
4144.842983
 20
4547.645442
 30
0.0
  0
VERTEX
  8
Drawing
 10
4223.114577
 20
4448.661670
 30
0.0
  0
SEQEND
  8
Drawing
  0
POLYLINE
  8
Drawing
  6
Solid
 66
 1
 70
1
 40
0.000000
 41
0.000000
  0
VERTEX
  8
Drawing
 10
8007.299602
 20
5827.007323
 30
0.0
  0
VERTEX
  8
Drawing
 10
6027.493917
 20
6177.858881
 30
0.0
  0
VERTEX
  8
Drawing
 10
7606.326034
 20
4849.635036
 30
0.0
  0
VERTEX
  8
Drawing
 10
7205.352798
 20
6704.136253
 30
0.0
  0
VERTEX
  8
Drawing
 10
6177.858881
 20
5125.304136
 30
0.0
  0
VERTEX
  8
Drawing
 10
8007.299602
 20
5827.007323
 30
0.0
  0
SEQEND
  8
Drawing
  0
LINE
  8
Drawing
  6
Solid
 10
8257.907882
 20
3496.350176
 30
0.0
 11
6303.163299
 21
1641.848906
 31
0.0
  0
ENDSEC
  0
EOF
